HIERARCHY
ROOT Hips
{
	OFFSET 0.00000 0.00000 0.00000
	CHANNELS 6 Xposition Yposition Zposition Zrotation Yrotation Xrotation 
	JOINT LHipJoint
	{
		OFFSET 0 0 0
		CHANNELS 3 Zrotation Yrotation Xrotation
		JOINT LeftUpLeg
		{
			OFFSET 1.64577 -1.42384 0.94276
			CHANNELS 3 Zrotation Yrotation Xrotation
			JOINT LeftLeg
			{
				OFFSET 2.11538 -5.81197 0.00000
				CHANNELS 3 Zrotation Yrotation Xrotation
				JOINT LeftFoot
				{
					OFFSET 2.36541 -6.49893 0.00000
					CHANNELS 3 Zrotation Yrotation Xrotation
					JOINT LeftToeBase
					{
						OFFSET 0.17759 -0.48793 1.73865
						CHANNELS 3 Zrotation Yrotation Xrotation
						End Site
						{
							OFFSET 0.00000 -0.00000 0.91205
						}
					}
				}
			}
		}
	}
	JOINT RHipJoint
	{
		OFFSET 0 0 0
		CHANNELS 3 Zrotation Yrotation Xrotation
		JOINT RightUpLeg
		{
			OFFSET -1.43750 -1.42384 0.94276
			CHANNELS 3 Zrotation Yrotation Xrotation
			JOINT RightLeg
			{
				OFFSET -2.10480 -5.78291 0.00000
				CHANNELS 3 Zrotation Yrotation Xrotation
				JOINT RightFoot
				{
					OFFSET -2.34880 -6.45329 0.00000
					CHANNELS 3 Zrotation Yrotation Xrotation
					JOINT RightToeBase
					{
						OFFSET -0.22842 -0.62757 1.80469
						CHANNELS 3 Zrotation Yrotation Xrotation
						End Site
						{
							OFFSET -0.00000 -0.00000 0.95886
						}
					}
				}
			}
		}
	}
	JOINT LowerBack
	{
		OFFSET 0 0 0
		CHANNELS 3 Zrotation Yrotation Xrotation
		JOINT Spine
		{
			OFFSET 0.06217 1.93758 -0.49272
			CHANNELS 3 Zrotation Yrotation Xrotation
			JOINT Spine1
			{
				OFFSET -0.03114 2.03621 -0.05830
				CHANNELS 3 Zrotation Yrotation Xrotation
				JOINT Neck
				{
					OFFSET 0 0 0
					CHANNELS 3 Zrotation Yrotation Xrotation
					JOINT Neck1
					{
						OFFSET 0.04421 1.41010 0.26562
						CHANNELS 3 Zrotation Yrotation Xrotation
						JOINT Head
						{
							OFFSET -0.13407 1.43847 0.06181
							CHANNELS 3 Zrotation Yrotation Xrotation
							End Site
							{
								OFFSET -0.04980 1.45844 -0.00689
							}
						}
					}
				}
				JOINT LeftShoulder
				{
					OFFSET 0 0 0
					CHANNELS 3 Zrotation Yrotation Xrotation
					JOINT LeftArm
					{
						OFFSET 2.18382 1.47753 -0.35694
						CHANNELS 3 Zrotation Yrotation Xrotation
						JOINT LeftForeArm
						{
							OFFSET 5.05460 -0.00000 0.00000
							CHANNELS 3 Zrotation Yrotation Xrotation
							JOINT LeftHand
							{
								OFFSET 3.39013 -0.00000 0.00000
								CHANNELS 3 Zrotation Yrotation Xrotation
								JOINT LeftFingerBase
								{
									OFFSET 0 0 0
									CHANNELS 3 Zrotation Yrotation Xrotation
									JOINT LeftHandIndex1
									{
										OFFSET 0.57242 -0.00000 -0.00000
										CHANNELS 3 Zrotation Yrotation Xrotation
										End Site
										{
											OFFSET 0.46150 -0.00000 -0.00000
										}
									}
								}
								JOINT LThumb
								{
									OFFSET 0 0 0
									CHANNELS 3 Zrotation Yrotation Xrotation
									End Site
									{
										OFFSET 0.46855 -0.00000 0.46855
									}
								}
							}
						}
					}
				}
				JOINT RightShoulder
				{
					OFFSET 0 0 0
					CHANNELS 3 Zrotation Yrotation Xrotation
					JOINT RightArm
					{
						OFFSET -2.06033 1.72839 -0.47437
						CHANNELS 3 Zrotation Yrotation Xrotation
						JOINT RightForeArm
						{
							OFFSET -5.07010 -0.00000 0.00000
							CHANNELS 3 Zrotation Yrotation Xrotation
							JOINT RightHand
							{
								OFFSET -3.14957 -0.00000 -0.00000
								CHANNELS 3 Zrotation Yrotation Xrotation
								JOINT RightFingerBase
								{
									OFFSET 0 0 0
									CHANNELS 3 Zrotation Yrotation Xrotation
									JOINT RightHandIndex1
									{
										OFFSET -0.71819 -0.00000 -0.00000
										CHANNELS 3 Zrotation Yrotation Xrotation
										End Site
										{
											OFFSET -0.57902 -0.00000 -0.00000
										}
									}
								}
								JOINT RThumb
								{
									OFFSET 0 0 0
									CHANNELS 3 Zrotation Yrotation Xrotation
									End Site
									{
										OFFSET -0.58786 -0.00000 0.58786
									}
								}
							}
						}
					}
				}
			}
		}
	}
}
MOTION
Frames: 9
Frame Time: .0083333
5.3970 15.5197 -0.6997 -105.0290 -85.9649 104.3380 0.0000 0.0000 0.0000 -14.1400 -17.4753 -6.6935 2.5659 9.9568 28.8369 0.7190 9.8446 -22.4637 0.3510 -3.8065 -10.5329 0.0000 0.0000 0.0000 27.7619 15.0963 1.1579 -0.7237 -5.4358 15.1559 -0.2610 -18.3629 -28.0568 -0.9353 6.1602 -17.2500 5.4978 1.2496 10.7685 0.6638 2.0444 4.3604 -2.6347 0.9939 -1.3025 8.3317 3.3873 -7.4766 -5.4323 4.0336 4.6709 -3.1114 1.9726 3.2091 -0.0000 0.0000 0.0000 -87.6917 3.8372 18.9421 22.2219 -33.2269 -6.7070 -0.0000 -0.0000 0.0909 18.4820 7.4488 2.4812 -7.1250 0.0000 -0.0000 -7.1140 37.7420 1.2788 -0.0000 0.0000 0.0000 80.8951 -1.2681 41.4396 -19.9949 30.6362 -5.5287 0.0000 -0.0000 -19.4182 -17.2720 0.6724 -0.2091 7.1250 -0.0000 -0.0000 7.2620 -29.2407 2.8098
5.3948 15.5153 -0.6809 -106.1600 -85.8079 105.2300 0.0000 0.0000 0.0000 -14.2697 -17.8933 -6.1392 2.5549 9.9371 28.7732 0.7201 10.2803 -22.8716 0.3354 -3.7220 -10.2959 0.0000 0.0000 0.0000 28.0155 15.5564 1.6509 -0.7249 -5.4403 15.1687 -0.3479 -18.3193 -28.6434 -0.6949 5.3288 -14.8486 5.4453 1.2566 10.8410 0.6879 2.0421 4.4829 -2.5798 0.9936 -1.2172 8.4558 3.3034 -7.3530 -5.5266 3.9198 4.4594 -3.1741 1.9146 3.1109 0.0000 0.0000 0.0000 -87.5382 3.4198 18.8007 21.5949 -32.5162 -6.3667 -0.0000 -0.0000 0.4973 18.8690 7.1639 2.4406 -7.1250 0.0000 -0.0000 -6.7483 37.4693 1.2577 0.0000 0.0000 0.0000 81.0185 -1.1087 41.2111 -19.8622 30.4760 -5.4613 0.0000 -0.0000 -19.3598 -17.4065 0.7128 -0.2234 7.1250 -0.0000 -0.0000 7.1545 -29.1993 2.7747
5.3840 15.5148 -0.6569 -107.9330 -85.9653 106.8350 0.0000 0.0000 0.0000 -14.7553 -18.1904 -5.7306 2.5526 9.9330 28.7600 0.7136 10.6598 -23.1663 0.2720 -3.3546 -9.2677 0.0000 0.0000 0.0000 27.8360 15.8238 2.0436 -0.7218 -5.4288 15.1357 -0.4261 -18.2316 -29.0990 -0.5820 4.8849 -13.5804 5.1115 1.2611 11.0300 0.6147 2.0339 4.3684 -2.4758 0.9808 -1.4522 8.4991 3.2742 -7.2987 -5.7654 3.9062 4.8913 -2.9322 1.8878 2.9204 -0.0000 -0.0000 0.0000 -87.3428 3.3924 18.6594 20.9813 -31.8065 -6.0401 -0.0000 -0.0000 0.9254 19.2967 7.0927 2.4755 -7.1250 0.0000 -0.0000 -6.3775 37.4218 1.1953 -0.0000 -0.0000 0.0000 81.1963 -1.4392 40.8918 -19.8082 30.4106 -5.4339 0.0000 -0.0000 -19.1708 -17.3498 0.7086 -0.2214 7.1250 -0.0000 -0.0000 7.1989 -29.2034 2.7914
5.3689 15.5202 -0.6298 -109.5210 -86.1316 108.4710 0.0000 0.0000 0.0000 -15.1552 -18.3660 -5.6380 2.5506 9.9294 28.7483 0.7064 10.8425 -23.2751 0.1971 -2.8588 -7.8859 0.0000 0.0000 0.0000 27.5097 15.9191 2.1765 -0.7131 -5.3968 15.0438 -0.5428 -17.8966 -29.5229 -0.5400 4.7082 -13.0780 4.8633 1.2831 10.8379 0.4982 2.0351 4.2773 -2.4539 0.9822 -1.4486 8.4274 3.2377 -7.3509 -5.6003 3.8547 5.1214 -2.8713 1.8680 2.9897 -0.0000 -0.0000 0.0000 -87.0384 3.3592 18.6496 20.5374 -31.2843 -5.8078 -0.0000 -0.0000 1.2204 19.4528 7.5521 2.6577 -7.1250 0.0000 -0.0000 -6.3044 37.9145 1.1050 -0.0000 -0.0000 0.0000 81.4583 -1.7572 40.4072 -19.8420 30.4515 -5.4510 0.0000 -0.0000 -19.0338 -17.1706 0.7072 -0.2185 7.1250 -0.0000 -0.0000 7.3384 -29.2042 2.8462
5.3600 15.5245 -0.6042 -109.6580 -85.9475 108.7700 0.0000 0.0000 0.0000 -15.0266 -18.3779 -5.7990 2.5453 9.9198 28.7173 0.6974 10.8660 -23.2178 0.1497 -2.4936 -6.8720 0.0000 0.0000 0.0000 27.5596 16.0637 2.1880 -0.7019 -5.3549 14.9236 -0.6517 -17.5943 -29.9261 -0.5374 4.6971 -13.0466 4.8954 1.2993 10.5429 0.5004 2.0504 4.2179 -2.4635 0.9940 -1.3471 8.2150 3.3407 -7.6493 -5.3009 3.9790 5.5287 -2.7329 1.9359 3.1595 0.0000 -0.0000 0.0000 -86.7508 3.2109 18.5862 20.1478 -30.8200 -5.6069 -0.0000 -0.0000 1.4811 19.2724 7.9112 2.7553 -7.1250 0.0000 -0.0000 -6.5059 38.2793 1.0822 0.0000 -0.0000 0.0000 81.6330 -1.9238 40.0919 -19.8911 30.5110 -5.4760 0.0000 -0.0000 -19.0647 -17.0153 0.7726 -0.2364 7.1250 -0.0000 -0.0000 7.4545 -29.1358 2.9041
5.3476 15.5261 -0.5760 -110.7040 -85.8536 109.8690 0.0000 0.0000 0.0000 -15.0562 -18.1782 -5.8484 2.5372 9.9052 28.6703 0.6854 10.8880 -23.1329 0.1620 -2.5934 -7.1488 0.0000 0.0000 0.0000 27.5285 16.1571 2.3338 -0.6873 -5.3001 14.7666 -0.6805 -17.5376 -30.0580 -0.5945 4.9360 -13.7262 4.7815 1.3075 10.3380 0.4942 2.0432 4.1868 -2.3997 0.9924 -1.2727 7.9877 3.5636 -8.1094 -5.0470 4.2609 6.1479 -2.5926 2.0792 3.4305 0.0000 0.0000 0.0000 -86.5642 3.0532 18.2700 19.7176 -30.3006 -5.3881 -0.0000 -0.0000 1.8001 19.0429 7.8656 2.7044 -7.1250 0.0000 -0.0000 -6.6952 38.2156 1.1245 0.0000 0.0000 0.0000 81.7421 -2.1085 39.9228 -19.9134 30.5379 -5.4873 0.0000 -0.0000 -18.9962 -16.9366 0.9825 -0.2992 7.1250 -0.0000 -0.0000 7.5006 -28.9179 2.9615
5.3325 15.5257 -0.5441 -111.7570 -85.8632 110.8290 0.0000 0.0000 0.0000 -15.2731 -17.9319 -5.6850 2.5274 9.8875 28.6131 0.6971 10.8479 -23.1980 0.1876 -2.7892 -7.6925 0.0000 0.0000 0.0000 27.4064 16.1844 2.6940 -0.6691 -5.2309 14.5683 -0.7849 -17.2349 -30.4249 -0.5506 4.7534 -13.2064 4.6299 1.3081 10.2249 0.4471 2.0215 4.2216 -2.3572 0.9835 -1.1807 7.9843 3.5624 -8.1633 -5.1212 4.2649 6.2863 -2.6132 2.0780 3.4830 0.0000 0.0000 0.0000 -86.4129 2.8281 17.8517 19.2703 -29.7532 -5.1643 -0.0000 -0.0000 2.1209 18.8237 7.8239 2.6569 -7.1250 0.0000 -0.0000 -6.8760 38.1568 1.1652 0.0000 0.0000 0.0000 81.8309 -2.2784 39.8640 -19.9376 30.5671 -5.4996 0.0000 -0.0000 -18.9921 -16.9005 1.0839 -0.3293 7.1250 -0.0000 -0.0000 7.5213 -28.8129 2.9887
5.3223 15.5215 -0.5141 -112.2260 -85.8027 111.2000 0.0000 0.0000 0.0000 -15.3593 -17.6578 -5.5295 2.5117 9.8592 28.5220 0.7355 10.6264 -23.3284 0.1846 -2.7670 -7.6306 0.0000 0.0000 0.0000 27.3788 16.1769 2.9956 -0.6542 -5.1737 14.4046 -0.8623 -17.0302 -30.7167 -0.5158 4.6033 -12.7805 4.5370 1.3294 10.1366 0.4092 2.0310 4.2986 -2.3414 0.9909 -1.0538 8.1711 3.3449 -7.8433 -5.4009 3.9918 5.9397 -2.7516 1.9372 3.3173 0.0000 -0.0000 0.0000 -86.2008 2.5523 17.5720 18.8998 -29.2940 -4.9817 -0.0000 -0.0000 2.2799 18.6296 8.1120 2.7235 -7.1250 0.0000 -0.0000 -7.0823 38.4442 1.1504 0.0000 -0.0000 0.0000 81.9427 -2.3275 39.7799 -19.9660 30.6013 -5.5140 0.0000 -0.0000 -19.1365 -16.8294 0.9212 -0.2786 7.1250 -0.0000 -0.0000 7.5881 -28.9813 2.9851
5.3114 15.5180 -0.4810 -113.1500 -85.6858 112.0510 0.0000 0.0000 0.0000 -15.3931 -17.3431 -5.4072 2.4943 9.8275 28.4198 0.7619 10.4595 -23.4047 0.1926 -2.8266 -7.7964 0.0000 0.0000 0.0000 27.3540 16.0746 3.1299 -0.6481 -5.1498 14.3363 -0.8385 -17.0301 -30.5602 -0.5527 4.7623 -13.2318 4.5075 1.3572 10.0610 0.3574 2.0586 4.3323 -2.3783 1.0070 -0.9745 8.3722 3.2024 -7.5486 -5.6023 3.8131 5.7444 -2.8607 1.8476 3.2058 0.0000 0.0000 0.0000 -85.9816 2.3373 17.2671 18.5478 -28.8530 -4.8107 -0.0000 -0.0000 2.4240 18.4716 8.5088 2.8296 -7.1250 0.0000 -0.0000 -7.2757 38.8465 1.1099 0.0000 0.0000 0.0000 82.1568 -2.3940 39.4665 -19.9370 30.5664 -5.4993 0.0000 -0.0000 -19.0358 -16.7094 0.8161 -0.2450 7.1250 -0.0000 -0.0000 7.6889 -29.0897 3.0054
